<?xml version="1.0" encoding="utf-8" standalone="no"?>
<!DOCTYPE svg PUBLIC "-//W3C//DTD SVG 1.1//EN"
  "http://www.w3.org/Graphics/SVG/1.1/DTD/svg11.dtd">
<svg xmlns:xlink="http://www.w3.org/1999/xlink" width="491.640625pt" height="419.67625pt" viewBox="0 0 491.640625 419.67625" xmlns="http://www.w3.org/2000/svg" version="1.1">
 <metadata>
  <rdf:RDF xmlns:dc="http://purl.org/dc/elements/1.1/" xmlns:cc="http://creativecommons.org/ns#" xmlns:rdf="http://www.w3.org/1999/02/22-rdf-syntax-ns#">
   <cc:Work>
    <dc:type rdf:resource="http://purl.org/dc/dcmitype/StillImage"/>
    <dc:date>2023-10-12T20:14:02.201312</dc:date>
    <dc:format>image/svg+xml</dc:format>
    <dc:creator>
     <cc:Agent>
      <dc:title>Matplotlib v3.7.1, https://matplotlib.org/</dc:title>
     </cc:Agent>
    </dc:creator>
   </cc:Work>
  </rdf:RDF>
 </metadata>
 <defs>
  <style type="text/css">*{stroke-linejoin: round; stroke-linecap: butt}</style>
 </defs>
 <g id="figure_1">
  <g id="patch_1">
   <path d="M 0 419.67625 
L 491.640625 419.67625 
L 491.640625 0 
L 0 0 
z
" style="fill: #ffffff"/>
  </g>
  <g id="axes_1">
   <g id="patch_2">
    <path d="M 79.540625 389.62 
L 484.440625 389.62 
L 484.440625 7.2 
L 79.540625 7.2 
z
" style="fill: #ffffff"/>
   </g>
   <g id="line2d_1">
    <path d="M 113.282292 198.41 
L 416.957292 198.41 
" clip-path="url(#p0e8f780668)" style="fill: none; stroke-dasharray: 5.55,2.4; stroke-dashoffset: 0; stroke: #000000; stroke-opacity: 0.5; stroke-width: 1.5"/>
   </g>
   <g id="matplotlib.axis_1">
    <g id="xtick_1">
     <g id="line2d_2"/>
     <g id="text_1">
      <!-- Exp. 1 -->
      <g style="fill: #262626" transform="translate(115.719271 408.316875) scale(0.2 -0.2)">
       <defs>
        <path id="DejaVuSans-45" d="M 628 4666 
L 3578 4666 
L 3578 4134 
L 1259 4134 
L 1259 2753 
L 3481 2753 
L 3481 2222 
L 1259 2222 
L 1259 531 
L 3634 531 
L 3634 0 
L 628 0 
L 628 4666 
z
" transform="scale(0.015625)"/>
        <path id="DejaVuSans-78" d="M 3513 3500 
L 2247 1797 
L 3578 0 
L 2900 0 
L 1881 1375 
L 863 0 
L 184 0 
L 1544 1831 
L 300 3500 
L 978 3500 
L 1906 2253 
L 2834 3500 
L 3513 3500 
z
" transform="scale(0.015625)"/>
        <path id="DejaVuSans-70" d="M 1159 525 
L 1159 -1331 
L 581 -1331 
L 581 3500 
L 1159 3500 
L 1159 2969 
Q 1341 3281 1617 3432 
Q 1894 3584 2278 3584 
Q 2916 3584 3314 3078 
Q 3713 2572 3713 1747 
Q 3713 922 3314 415 
Q 2916 -91 2278 -91 
Q 1894 -91 1617 61 
Q 1341 213 1159 525 
z
M 3116 1747 
Q 3116 2381 2855 2742 
Q 2594 3103 2138 3103 
Q 1681 3103 1420 2742 
Q 1159 2381 1159 1747 
Q 1159 1113 1420 752 
Q 1681 391 2138 391 
Q 2594 391 2855 752 
Q 3116 1113 3116 1747 
z
" transform="scale(0.015625)"/>
        <path id="DejaVuSans-2e" d="M 684 794 
L 1344 794 
L 1344 0 
L 684 0 
L 684 794 
z
" transform="scale(0.015625)"/>
        <path id="DejaVuSans-20" transform="scale(0.015625)"/>
        <path id="DejaVuSans-31" d="M 794 531 
L 1825 531 
L 1825 4091 
L 703 3866 
L 703 4441 
L 1819 4666 
L 2450 4666 
L 2450 531 
L 3481 531 
L 3481 0 
L 794 0 
L 794 531 
z
" transform="scale(0.015625)"/>
       </defs>
       <use xlink:href="#DejaVuSans-45"/>
       <use xlink:href="#DejaVuSans-78" x="63.183594"/>
       <use xlink:href="#DejaVuSans-70" x="122.363281"/>
       <use xlink:href="#DejaVuSans-2e" x="185.839844"/>
       <use xlink:href="#DejaVuSans-20" x="217.626953"/>
       <use xlink:href="#DejaVuSans-31" x="249.414062"/>
      </g>
     </g>
    </g>
    <g id="xtick_2">
     <g id="line2d_3"/>
     <g id="text_2">
      <!-- Exp. 2 -->
      <g style="fill: #262626" transform="translate(250.685937 408.316875) scale(0.2 -0.2)">
       <defs>
        <path id="DejaVuSans-32" d="M 1228 531 
L 3431 531 
L 3431 0 
L 469 0 
L 469 531 
Q 828 903 1448 1529 
Q 2069 2156 2228 2338 
Q 2531 2678 2651 2914 
Q 2772 3150 2772 3378 
Q 2772 3750 2511 3984 
Q 2250 4219 1831 4219 
Q 1534 4219 1204 4116 
Q 875 4013 500 3803 
L 500 4441 
Q 881 4594 1212 4672 
Q 1544 4750 1819 4750 
Q 2544 4750 2975 4387 
Q 3406 4025 3406 3419 
Q 3406 3131 3298 2873 
Q 3191 2616 2906 2266 
Q 2828 2175 2409 1742 
Q 1991 1309 1228 531 
z
" transform="scale(0.015625)"/>
       </defs>
       <use xlink:href="#DejaVuSans-45"/>
       <use xlink:href="#DejaVuSans-78" x="63.183594"/>
       <use xlink:href="#DejaVuSans-70" x="122.363281"/>
       <use xlink:href="#DejaVuSans-2e" x="185.839844"/>
       <use xlink:href="#DejaVuSans-20" x="217.626953"/>
       <use xlink:href="#DejaVuSans-32" x="249.414062"/>
      </g>
     </g>
    </g>
    <g id="xtick_3">
     <g id="line2d_4"/>
     <g id="text_3">
      <!-- Exp. 3 -->
      <g style="fill: #262626" transform="translate(385.652604 408.316875) scale(0.2 -0.2)">
       <defs>
        <path id="DejaVuSans-33" d="M 2597 2516 
Q 3050 2419 3304 2112 
Q 3559 1806 3559 1356 
Q 3559 666 3084 287 
Q 2609 -91 1734 -91 
Q 1441 -91 1130 -33 
Q 819 25 488 141 
L 488 750 
Q 750 597 1062 519 
Q 1375 441 1716 441 
Q 2309 441 2620 675 
Q 2931 909 2931 1356 
Q 2931 1769 2642 2001 
Q 2353 2234 1838 2234 
L 1294 2234 
L 1294 2753 
L 1863 2753 
Q 2328 2753 2575 2939 
Q 2822 3125 2822 3475 
Q 2822 3834 2567 4026 
Q 2313 4219 1838 4219 
Q 1578 4219 1281 4162 
Q 984 4106 628 3988 
L 628 4550 
Q 988 4650 1302 4700 
Q 1616 4750 1894 4750 
Q 2613 4750 3031 4423 
Q 3450 4097 3450 3541 
Q 3450 3153 3228 2886 
Q 3006 2619 2597 2516 
z
" transform="scale(0.015625)"/>
       </defs>
       <use xlink:href="#DejaVuSans-45"/>
       <use xlink:href="#DejaVuSans-78" x="63.183594"/>
       <use xlink:href="#DejaVuSans-70" x="122.363281"/>
       <use xlink:href="#DejaVuSans-2e" x="185.839844"/>
       <use xlink:href="#DejaVuSans-20" x="217.626953"/>
       <use xlink:href="#DejaVuSans-33" x="249.414062"/>
      </g>
     </g>
    </g>
   </g>
   <g id="matplotlib.axis_2">
    <g id="ytick_1">
     <g id="line2d_5">
      <defs>
       <path id="m6059771bfa" d="M 0 0 
L -6 0 
" style="stroke: #262626; stroke-width: 2.5"/>
      </defs>
      <g>
       <use xlink:href="#m6059771bfa" x="69.540625" y="357.751667" style="fill: #262626; stroke: #262626; stroke-width: 2.5"/>
      </g>
     </g>
     <g id="text_4">
      <!-- −3 -->
      <g style="fill: #262626" transform="translate(30.55625 365.350104) scale(0.2 -0.2)">
       <defs>
        <path id="DejaVuSans-2212" d="M 678 2272 
L 4684 2272 
L 4684 1741 
L 678 1741 
L 678 2272 
z
" transform="scale(0.015625)"/>
       </defs>
       <use xlink:href="#DejaVuSans-2212"/>
       <use xlink:href="#DejaVuSans-33" x="83.789062"/>
      </g>
     </g>
    </g>
    <g id="ytick_2">
     <g id="line2d_6">
      <g>
       <use xlink:href="#m6059771bfa" x="69.540625" y="304.637778" style="fill: #262626; stroke: #262626; stroke-width: 2.5"/>
      </g>
     </g>
     <g id="text_5">
      <!-- −2 -->
      <g style="fill: #262626" transform="translate(30.55625 312.236215) scale(0.2 -0.2)">
       <use xlink:href="#DejaVuSans-2212"/>
       <use xlink:href="#DejaVuSans-32" x="83.789062"/>
      </g>
     </g>
    </g>
    <g id="ytick_3">
     <g id="line2d_7">
      <g>
       <use xlink:href="#m6059771bfa" x="69.540625" y="251.523889" style="fill: #262626; stroke: #262626; stroke-width: 2.5"/>
      </g>
     </g>
     <g id="text_6">
      <!-- −1 -->
      <g style="fill: #262626" transform="translate(30.55625 259.122326) scale(0.2 -0.2)">
       <use xlink:href="#DejaVuSans-2212"/>
       <use xlink:href="#DejaVuSans-31" x="83.789062"/>
      </g>
     </g>
    </g>
    <g id="ytick_4">
     <g id="line2d_8">
      <g>
       <use xlink:href="#m6059771bfa" x="69.540625" y="198.41" style="fill: #262626; stroke: #262626; stroke-width: 2.5"/>
      </g>
     </g>
     <g id="text_7">
      <!-- 0 -->
      <g style="fill: #262626" transform="translate(47.315625 206.008437) scale(0.2 -0.2)">
       <defs>
        <path id="DejaVuSans-30" d="M 2034 4250 
Q 1547 4250 1301 3770 
Q 1056 3291 1056 2328 
Q 1056 1369 1301 889 
Q 1547 409 2034 409 
Q 2525 409 2770 889 
Q 3016 1369 3016 2328 
Q 3016 3291 2770 3770 
Q 2525 4250 2034 4250 
z
M 2034 4750 
Q 2819 4750 3233 4129 
Q 3647 3509 3647 2328 
Q 3647 1150 3233 529 
Q 2819 -91 2034 -91 
Q 1250 -91 836 529 
Q 422 1150 422 2328 
Q 422 3509 836 4129 
Q 1250 4750 2034 4750 
z
" transform="scale(0.015625)"/>
       </defs>
       <use xlink:href="#DejaVuSans-30"/>
      </g>
     </g>
    </g>
    <g id="ytick_5">
     <g id="line2d_9">
      <g>
       <use xlink:href="#m6059771bfa" x="69.540625" y="145.296111" style="fill: #262626; stroke: #262626; stroke-width: 2.5"/>
      </g>
     </g>
     <g id="text_8">
      <!-- 1 -->
      <g style="fill: #262626" transform="translate(47.315625 152.894549) scale(0.2 -0.2)">
       <use xlink:href="#DejaVuSans-31"/>
      </g>
     </g>
    </g>
    <g id="ytick_6">
     <g id="line2d_10">
      <g>
       <use xlink:href="#m6059771bfa" x="69.540625" y="92.182222" style="fill: #262626; stroke: #262626; stroke-width: 2.5"/>
      </g>
     </g>
     <g id="text_9">
      <!-- 2 -->
      <g style="fill: #262626" transform="translate(47.315625 99.78066) scale(0.2 -0.2)">
       <use xlink:href="#DejaVuSans-32"/>
      </g>
     </g>
    </g>
    <g id="ytick_7">
     <g id="line2d_11">
      <g>
       <use xlink:href="#m6059771bfa" x="69.540625" y="39.068333" style="fill: #262626; stroke: #262626; stroke-width: 2.5"/>
      </g>
     </g>
     <g id="text_10">
      <!-- 3 -->
      <g style="fill: #262626" transform="translate(47.315625 46.666771) scale(0.2 -0.2)">
       <use xlink:href="#DejaVuSans-33"/>
      </g>
     </g>
    </g>
    <g id="text_11">
     <!-- d-prime -->
     <g style="fill: #262626" transform="translate(22.396875 237.4975) rotate(-90) scale(0.2 -0.2)">
      <defs>
       <path id="DejaVuSans-64" d="M 2906 2969 
L 2906 4863 
L 3481 4863 
L 3481 0 
L 2906 0 
L 2906 525 
Q 2725 213 2448 61 
Q 2172 -91 1784 -91 
Q 1150 -91 751 415 
Q 353 922 353 1747 
Q 353 2572 751 3078 
Q 1150 3584 1784 3584 
Q 2172 3584 2448 3432 
Q 2725 3281 2906 2969 
z
M 947 1747 
Q 947 1113 1208 752 
Q 1469 391 1925 391 
Q 2381 391 2643 752 
Q 2906 1113 2906 1747 
Q 2906 2381 2643 2742 
Q 2381 3103 1925 3103 
Q 1469 3103 1208 2742 
Q 947 2381 947 1747 
z
" transform="scale(0.015625)"/>
       <path id="DejaVuSans-2d" d="M 313 2009 
L 1997 2009 
L 1997 1497 
L 313 1497 
L 313 2009 
z
" transform="scale(0.015625)"/>
       <path id="DejaVuSans-72" d="M 2631 2963 
Q 2534 3019 2420 3045 
Q 2306 3072 2169 3072 
Q 1681 3072 1420 2755 
Q 1159 2438 1159 1844 
L 1159 0 
L 581 0 
L 581 3500 
L 1159 3500 
L 1159 2956 
Q 1341 3275 1631 3429 
Q 1922 3584 2338 3584 
Q 2397 3584 2469 3576 
Q 2541 3569 2628 3553 
L 2631 2963 
z
" transform="scale(0.015625)"/>
       <path id="DejaVuSans-69" d="M 603 3500 
L 1178 3500 
L 1178 0 
L 603 0 
L 603 3500 
z
M 603 4863 
L 1178 4863 
L 1178 4134 
L 603 4134 
L 603 4863 
z
" transform="scale(0.015625)"/>
       <path id="DejaVuSans-6d" d="M 3328 2828 
Q 3544 3216 3844 3400 
Q 4144 3584 4550 3584 
Q 5097 3584 5394 3201 
Q 5691 2819 5691 2113 
L 5691 0 
L 5113 0 
L 5113 2094 
Q 5113 2597 4934 2840 
Q 4756 3084 4391 3084 
Q 3944 3084 3684 2787 
Q 3425 2491 3425 1978 
L 3425 0 
L 2847 0 
L 2847 2094 
Q 2847 2600 2669 2842 
Q 2491 3084 2119 3084 
Q 1678 3084 1418 2786 
Q 1159 2488 1159 1978 
L 1159 0 
L 581 0 
L 581 3500 
L 1159 3500 
L 1159 2956 
Q 1356 3278 1631 3431 
Q 1906 3584 2284 3584 
Q 2666 3584 2933 3390 
Q 3200 3197 3328 2828 
z
" transform="scale(0.015625)"/>
       <path id="DejaVuSans-65" d="M 3597 1894 
L 3597 1613 
L 953 1613 
Q 991 1019 1311 708 
Q 1631 397 2203 397 
Q 2534 397 2845 478 
Q 3156 559 3463 722 
L 3463 178 
Q 3153 47 2828 -22 
Q 2503 -91 2169 -91 
Q 1331 -91 842 396 
Q 353 884 353 1716 
Q 353 2575 817 3079 
Q 1281 3584 2069 3584 
Q 2775 3584 3186 3129 
Q 3597 2675 3597 1894 
z
M 3022 2063 
Q 3016 2534 2758 2815 
Q 2500 3097 2075 3097 
Q 1594 3097 1305 2825 
Q 1016 2553 972 2059 
L 3022 2063 
z
" transform="scale(0.015625)"/>
      </defs>
      <use xlink:href="#DejaVuSans-64"/>
      <use xlink:href="#DejaVuSans-2d" x="63.476562"/>
      <use xlink:href="#DejaVuSans-70" x="99.560547"/>
      <use xlink:href="#DejaVuSans-72" x="163.037109"/>
      <use xlink:href="#DejaVuSans-69" x="204.150391"/>
      <use xlink:href="#DejaVuSans-6d" x="231.933594"/>
      <use xlink:href="#DejaVuSans-65" x="329.345703"/>
     </g>
    </g>
   </g>
   <g id="PolyCollection_1">
    <defs>
     <path id="m3a19e1da8f" d="M 126.778958 -164.663522 
L 122.023156 -164.663522 
L 121.643943 -166.77045 
L 121.35163 -168.877378 
L 121.142347 -170.984306 
L 120.999732 -173.091234 
L 120.89705 -175.198162 
L 120.800892 -177.30509 
L 120.675753 -179.412018 
L 120.488765 -181.518946 
L 120.213868 -183.625874 
L 119.834905 -185.732802 
L 119.347204 -187.83973 
L 118.757392 -189.946658 
L 118.081346 -192.053586 
L 117.340471 -194.160514 
L 116.556919 -196.267442 
L 115.748785 -198.37437 
L 114.926521 -200.481298 
L 114.091655 -202.588226 
L 113.238255 -204.695154 
L 112.356642 -206.802082 
L 111.437967 -208.90901 
L 110.477815 -211.015938 
L 109.477282 -213.122866 
L 108.440924 -215.229794 
L 107.372261 -217.336722 
L 106.268651 -219.44365 
L 105.117852 -221.550578 
L 103.898206 -223.657506 
L 102.58331 -225.764434 
L 101.150494 -227.871362 
L 99.59105 -229.97829 
L 97.919258 -232.085218 
L 96.177206 -234.192146 
L 94.43321 -236.299074 
L 92.773214 -238.406002 
L 91.286396 -240.51293 
L 90.048041 -242.619858 
L 89.103761 -244.726787 
L 88.45925 -246.833715 
L 88.078565 -248.940643 
L 87.891884 -251.047571 
L 87.811247 -253.154499 
L 87.75065 -255.261427 
L 87.645727 -257.368355 
L 87.468395 -259.475283 
L 87.233149 -261.582211 
L 86.993879 -263.689139 
L 86.832364 -265.796067 
L 86.841506 -267.902995 
L 87.107332 -270.009923 
L 87.693726 -272.116851 
L 88.632815 -274.223779 
L 89.922274 -276.330707 
L 91.529061 -278.437635 
L 93.397624 -280.544563 
L 95.4599 -282.651491 
L 97.644436 -284.758419 
L 99.882742 -286.865347 
L 102.112106 -288.972275 
L 104.275269 -291.079203 
L 106.318279 -293.186131 
L 108.188214 -295.293059 
L 109.832437 -297.399987 
L 111.200478 -299.506915 
L 112.248867 -301.613843 
L 112.948302 -303.720771 
L 113.291687 -305.827699 
L 113.300952 -307.934627 
L 113.030483 -310.041555 
L 112.565409 -312.148483 
L 112.014054 -314.255411 
L 111.495258 -316.362339 
L 111.122682 -318.469267 
L 110.989157 -320.576195 
L 111.154297 -322.683123 
L 111.637895 -324.790051 
L 112.420163 -326.896979 
L 113.448277 -329.003907 
L 114.64726 -331.110835 
L 115.932548 -333.217763 
L 117.221679 -335.324691 
L 118.443298 -337.431619 
L 119.542692 -339.538547 
L 120.484026 -341.645475 
L 121.250001 -343.752403 
L 121.8398 -345.859331 
L 122.266018 -347.966259 
L 122.551031 -350.073187 
L 122.72313 -352.180115 
L 122.812742 -354.287044 
L 122.849156 -356.393972 
L 122.858196 -358.5009 
L 122.861122 -360.607828 
L 122.874724 -362.714756 
L 122.912193 -364.821684 
L 122.984152 -366.928612 
L 123.099197 -369.03554 
L 123.263622 -371.142468 
L 123.480422 -373.249396 
L 126.778958 -373.249396 
L 126.778958 -373.249396 
L 126.778958 -371.142468 
L 126.778958 -369.03554 
L 126.778958 -366.928612 
L 126.778958 -364.821684 
L 126.778958 -362.714756 
L 126.778958 -360.607828 
L 126.778958 -358.5009 
L 126.778958 -356.393972 
L 126.778958 -354.287044 
L 126.778958 -352.180115 
L 126.778958 -350.073187 
L 126.778958 -347.966259 
L 126.778958 -345.859331 
L 126.778958 -343.752403 
L 126.778958 -341.645475 
L 126.778958 -339.538547 
L 126.778958 -337.431619 
L 126.778958 -335.324691 
L 126.778958 -333.217763 
L 126.778958 -331.110835 
L 126.778958 -329.003907 
L 126.778958 -326.896979 
L 126.778958 -324.790051 
L 126.778958 -322.683123 
L 126.778958 -320.576195 
L 126.778958 -318.469267 
L 126.778958 -316.362339 
L 126.778958 -314.255411 
L 126.778958 -312.148483 
L 126.778958 -310.041555 
L 126.778958 -307.934627 
L 126.778958 -305.827699 
L 126.778958 -303.720771 
L 126.778958 -301.613843 
L 126.778958 -299.506915 
L 126.778958 -297.399987 
L 126.778958 -295.293059 
L 126.778958 -293.186131 
L 126.778958 -291.079203 
L 126.778958 -288.972275 
L 126.778958 -286.865347 
L 126.778958 -284.758419 
L 126.778958 -282.651491 
L 126.778958 -280.544563 
L 126.778958 -278.437635 
L 126.778958 -276.330707 
L 126.778958 -274.223779 
L 126.778958 -272.116851 
L 126.778958 -270.009923 
L 126.778958 -267.902995 
L 126.778958 -265.796067 
L 126.778958 -263.689139 
L 126.778958 -261.582211 
L 126.778958 -259.475283 
L 126.778958 -257.368355 
L 126.778958 -255.261427 
L 126.778958 -253.154499 
L 126.778958 -251.047571 
L 126.778958 -248.940643 
L 126.778958 -246.833715 
L 126.778958 -244.726787 
L 126.778958 -242.619858 
L 126.778958 -240.51293 
L 126.778958 -238.406002 
L 126.778958 -236.299074 
L 126.778958 -234.192146 
L 126.778958 -232.085218 
L 126.778958 -229.97829 
L 126.778958 -227.871362 
L 126.778958 -225.764434 
L 126.778958 -223.657506 
L 126.778958 -221.550578 
L 126.778958 -219.44365 
L 126.778958 -217.336722 
L 126.778958 -215.229794 
L 126.778958 -213.122866 
L 126.778958 -211.015938 
L 126.778958 -208.90901 
L 126.778958 -206.802082 
L 126.778958 -204.695154 
L 126.778958 -202.588226 
L 126.778958 -200.481298 
L 126.778958 -198.37437 
L 126.778958 -196.267442 
L 126.778958 -194.160514 
L 126.778958 -192.053586 
L 126.778958 -189.946658 
L 126.778958 -187.83973 
L 126.778958 -185.732802 
L 126.778958 -183.625874 
L 126.778958 -181.518946 
L 126.778958 -179.412018 
L 126.778958 -177.30509 
L 126.778958 -175.198162 
L 126.778958 -173.091234 
L 126.778958 -170.984306 
L 126.778958 -168.877378 
L 126.778958 -166.77045 
L 126.778958 -164.663522 
z
"/>
    </defs>
    <g clip-path="url(#p0e8f780668)">
     <use xlink:href="#m3a19e1da8f" x="0" y="419.67625" style="fill: #5f9e6e"/>
    </g>
   </g>
   <g id="PolyCollection_2">
    <defs>
     <path id="md965f270fe" d="M 261.745625 -159.858707 
L 258.656618 -159.858707 
L 258.634327 -161.865191 
L 258.684923 -163.871676 
L 258.781731 -165.878161 
L 258.891576 -167.884645 
L 258.981583 -169.89113 
L 259.026088 -171.897615 
L 259.01202 -173.904099 
L 258.941399 -175.910584 
L 258.830288 -177.917069 
L 258.704332 -179.923553 
L 258.591827 -181.930038 
L 258.515845 -183.936523 
L 258.487196 -185.943007 
L 258.499801 -187.949492 
L 258.529546 -189.955977 
L 258.536898 -191.962461 
L 258.472753 -193.968946 
L 258.286321 -195.975431 
L 257.93346 -197.981915 
L 257.383851 -199.9884 
L 256.625683 -201.994885 
L 255.667127 -204.001369 
L 254.53456 -206.007854 
L 253.268194 -208.014339 
L 251.916265 -210.020823 
L 250.529041 -212.027308 
L 249.153685 -214.033793 
L 247.830477 -216.040278 
L 246.590325 -218.046762 
L 245.453168 -220.053247 
L 244.426935 -222.059732 
L 243.507075 -224.066216 
L 242.677205 -226.072701 
L 241.911523 -228.079186 
L 241.179359 -230.08567 
L 240.451367 -232.092155 
L 239.705902 -234.09864 
L 238.933544 -236.105124 
L 238.137938 -238.111609 
L 237.33222 -240.118094 
L 236.531939 -242.124578 
L 235.746921 -244.131063 
L 234.975194 -246.137548 
L 234.201538 -248.144032 
L 233.401543 -250.150517 
L 232.549885 -252.157002 
L 231.629783 -254.163486 
L 230.640078 -256.169971 
L 229.597274 -258.176456 
L 228.531917 -260.18294 
L 227.480841 -262.189425 
L 226.478218 -264.19591 
L 225.548472 -266.202394 
L 224.702912 -268.208879 
L 223.940334 -270.215364 
L 223.250481 -272.221848 
L 222.61889 -274.228333 
L 222.032161 -276.234818 
L 221.483554 -278.241302 
L 220.97917 -280.247787 
L 220.54442 -282.254272 
L 220.229191 -284.260756 
L 220.108878 -286.267241 
L 220.278276 -288.273726 
L 220.83677 -290.28021 
L 221.866101 -292.286695 
L 223.405245 -294.29318 
L 225.429149 -296.299664 
L 227.838229 -298.306149 
L 230.463277 -300.312634 
L 233.086558 -302.319118 
L 235.475516 -304.325603 
L 237.422269 -306.332088 
L 238.780587 -308.338572 
L 239.492739 -310.345057 
L 239.600872 -312.351542 
L 239.240814 -314.358026 
L 238.619575 -316.364511 
L 237.98081 -318.370996 
L 237.564612 -320.377481 
L 237.568951 -322.383965 
L 238.11965 -324.39045 
L 239.254 -326.396935 
L 240.920296 -328.403419 
L 242.992321 -330.409904 
L 245.294929 -332.416389 
L 247.635048 -334.422873 
L 249.832016 -336.429358 
L 251.742146 -338.435843 
L 253.274252 -340.442327 
L 254.395101 -342.448812 
L 255.125601 -344.455297 
L 255.529915 -346.461781 
L 255.700244 -348.468266 
L 255.740118 -350.474751 
L 255.748686 -352.481235 
L 255.807981 -354.48772 
L 255.974461 -356.494205 
L 256.275465 -358.500689 
L 261.745625 -358.500689 
L 261.745625 -358.500689 
L 261.745625 -356.494205 
L 261.745625 -354.48772 
L 261.745625 -352.481235 
L 261.745625 -350.474751 
L 261.745625 -348.468266 
L 261.745625 -346.461781 
L 261.745625 -344.455297 
L 261.745625 -342.448812 
L 261.745625 -340.442327 
L 261.745625 -338.435843 
L 261.745625 -336.429358 
L 261.745625 -334.422873 
L 261.745625 -332.416389 
L 261.745625 -330.409904 
L 261.745625 -328.403419 
L 261.745625 -326.396935 
L 261.745625 -324.39045 
L 261.745625 -322.383965 
L 261.745625 -320.377481 
L 261.745625 -318.370996 
L 261.745625 -316.364511 
L 261.745625 -314.358026 
L 261.745625 -312.351542 
L 261.745625 -310.345057 
L 261.745625 -308.338572 
L 261.745625 -306.332088 
L 261.745625 -304.325603 
L 261.745625 -302.319118 
L 261.745625 -300.312634 
L 261.745625 -298.306149 
L 261.745625 -296.299664 
L 261.745625 -294.29318 
L 261.745625 -292.286695 
L 261.745625 -290.28021 
L 261.745625 -288.273726 
L 261.745625 -286.267241 
L 261.745625 -284.260756 
L 261.745625 -282.254272 
L 261.745625 -280.247787 
L 261.745625 -278.241302 
L 261.745625 -276.234818 
L 261.745625 -274.228333 
L 261.745625 -272.221848 
L 261.745625 -270.215364 
L 261.745625 -268.208879 
L 261.745625 -266.202394 
L 261.745625 -264.19591 
L 261.745625 -262.189425 
L 261.745625 -260.18294 
L 261.745625 -258.176456 
L 261.745625 -256.169971 
L 261.745625 -254.163486 
L 261.745625 -252.157002 
L 261.745625 -250.150517 
L 261.745625 -248.144032 
L 261.745625 -246.137548 
L 261.745625 -244.131063 
L 261.745625 -242.124578 
L 261.745625 -240.118094 
L 261.745625 -238.111609 
L 261.745625 -236.105124 
L 261.745625 -234.09864 
L 261.745625 -232.092155 
L 261.745625 -230.08567 
L 261.745625 -228.079186 
L 261.745625 -226.072701 
L 261.745625 -224.066216 
L 261.745625 -222.059732 
L 261.745625 -220.053247 
L 261.745625 -218.046762 
L 261.745625 -216.040278 
L 261.745625 -214.033793 
L 261.745625 -212.027308 
L 261.745625 -210.020823 
L 261.745625 -208.014339 
L 261.745625 -206.007854 
L 261.745625 -204.001369 
L 261.745625 -201.994885 
L 261.745625 -199.9884 
L 261.745625 -197.981915 
L 261.745625 -195.975431 
L 261.745625 -193.968946 
L 261.745625 -191.962461 
L 261.745625 -189.955977 
L 261.745625 -187.949492 
L 261.745625 -185.943007 
L 261.745625 -183.936523 
L 261.745625 -181.930038 
L 261.745625 -179.923553 
L 261.745625 -177.917069 
L 261.745625 -175.910584 
L 261.745625 -173.904099 
L 261.745625 -171.897615 
L 261.745625 -169.89113 
L 261.745625 -167.884645 
L 261.745625 -165.878161 
L 261.745625 -163.871676 
L 261.745625 -161.865191 
L 261.745625 -159.858707 
z
"/>
    </defs>
    <g clip-path="url(#p0e8f780668)">
     <use xlink:href="#md965f270fe" x="0" y="419.67625" style="fill: #b55d60"/>
    </g>
   </g>
   <g id="PolyCollection_3">
    <defs>
     <path id="m4792a1b708" d="M 396.712292 -184.286245 
L 391.693601 -184.286245 
L 391.231489 -185.775934 
L 390.754637 -187.265623 
L 390.237635 -188.755312 
L 389.648697 -190.245001 
L 388.952512 -191.734689 
L 388.11376 -193.224378 
L 387.100915 -194.714067 
L 385.889908 -196.203756 
L 384.467164 -197.693445 
L 382.831546 -199.183134 
L 380.994778 -200.672823 
L 378.980154 -202.162512 
L 376.819624 -203.652201 
L 374.549779 -205.14189 
L 372.207586 -206.631579 
L 369.826927 -208.121268 
L 367.436856 -209.610957 
L 365.062099 -211.100646 
L 362.725643 -212.590335 
L 360.452623 -214.080024 
L 358.274195 -215.569713 
L 356.229995 -217.059402 
L 354.368035 -218.549091 
L 352.741565 -220.03878 
L 351.403195 -221.528469 
L 350.397319 -223.018158 
L 349.752292 -224.507847 
L 349.473958 -225.997536 
L 349.541787 -227.487224 
L 349.908463 -228.976913 
L 350.503136 -230.466602 
L 351.238056 -231.956291 
L 352.017876 -233.44598 
L 352.750606 -234.935669 
L 353.358975 -236.425358 
L 353.790779 -237.915047 
L 354.026673 -239.404736 
L 354.08397 -240.894425 
L 354.015292 -242.384114 
L 353.9016 -243.873803 
L 353.840095 -245.363492 
L 353.928563 -246.853181 
L 354.248675 -248.34287 
L 354.851317 -249.832559 
L 355.746847 -251.322248 
L 356.90235 -252.811937 
L 358.246569 -254.301626 
L 359.681557 -255.791315 
L 361.098705 -257.281004 
L 362.395952 -258.770693 
L 363.492888 -260.260382 
L 364.341129 -261.750071 
L 364.928533 -263.23976 
L 365.277182 -264.729448 
L 365.436283 -266.219137 
L 365.471948 -267.708826 
L 365.456095 -269.198515 
L 365.456502 -270.688204 
L 365.529478 -272.177893 
L 365.715861 -273.667582 
L 366.040301 -275.157271 
L 366.513173 -276.64696 
L 367.134104 -278.136649 
L 367.895975 -279.626338 
L 368.788373 -281.116027 
L 369.799825 -282.605716 
L 370.918518 -284.095405 
L 372.131675 -285.585094 
L 373.42406 -287.074783 
L 374.776307 -288.564472 
L 376.16376 -290.054161 
L 377.556375 -291.54385 
L 378.91993 -293.033539 
L 380.218493 -294.523228 
L 381.417755 -296.012917 
L 382.488648 -297.502606 
L 383.410556 -298.992295 
L 384.173504 -300.481983 
L 384.778899 -301.971672 
L 385.238688 -303.461361 
L 385.57309 -304.95105 
L 385.80735 -306.440739 
L 385.968113 -307.930428 
L 386.080087 -309.420117 
L 386.163555 -310.909806 
L 386.233115 -312.399495 
L 386.297759 -313.889184 
L 386.362163 -315.378873 
L 386.428807 -316.868562 
L 386.500417 -318.358251 
L 386.582168 -319.84794 
L 386.683143 -321.337629 
L 386.816672 -322.827318 
L 386.999426 -324.317007 
L 387.249362 -325.806696 
L 387.582881 -327.296385 
L 388.01176 -328.786074 
L 388.540467 -330.275763 
L 389.164452 -331.765452 
L 396.712292 -331.765452 
L 396.712292 -331.765452 
L 396.712292 -330.275763 
L 396.712292 -328.786074 
L 396.712292 -327.296385 
L 396.712292 -325.806696 
L 396.712292 -324.317007 
L 396.712292 -322.827318 
L 396.712292 -321.337629 
L 396.712292 -319.84794 
L 396.712292 -318.358251 
L 396.712292 -316.868562 
L 396.712292 -315.378873 
L 396.712292 -313.889184 
L 396.712292 -312.399495 
L 396.712292 -310.909806 
L 396.712292 -309.420117 
L 396.712292 -307.930428 
L 396.712292 -306.440739 
L 396.712292 -304.95105 
L 396.712292 -303.461361 
L 396.712292 -301.971672 
L 396.712292 -300.481983 
L 396.712292 -298.992295 
L 396.712292 -297.502606 
L 396.712292 -296.012917 
L 396.712292 -294.523228 
L 396.712292 -293.033539 
L 396.712292 -291.54385 
L 396.712292 -290.054161 
L 396.712292 -288.564472 
L 396.712292 -287.074783 
L 396.712292 -285.585094 
L 396.712292 -284.095405 
L 396.712292 -282.605716 
L 396.712292 -281.116027 
L 396.712292 -279.626338 
L 396.712292 -278.136649 
L 396.712292 -276.64696 
L 396.712292 -275.157271 
L 396.712292 -273.667582 
L 396.712292 -272.177893 
L 396.712292 -270.688204 
L 396.712292 -269.198515 
L 396.712292 -267.708826 
L 396.712292 -266.219137 
L 396.712292 -264.729448 
L 396.712292 -263.23976 
L 396.712292 -261.750071 
L 396.712292 -260.260382 
L 396.712292 -258.770693 
L 396.712292 -257.281004 
L 396.712292 -255.791315 
L 396.712292 -254.301626 
L 396.712292 -252.811937 
L 396.712292 -251.322248 
L 396.712292 -249.832559 
L 396.712292 -248.34287 
L 396.712292 -246.853181 
L 396.712292 -245.363492 
L 396.712292 -243.873803 
L 396.712292 -242.384114 
L 396.712292 -240.894425 
L 396.712292 -239.404736 
L 396.712292 -237.915047 
L 396.712292 -236.425358 
L 396.712292 -234.935669 
L 396.712292 -233.44598 
L 396.712292 -231.956291 
L 396.712292 -230.466602 
L 396.712292 -228.976913 
L 396.712292 -227.487224 
L 396.712292 -225.997536 
L 396.712292 -224.507847 
L 396.712292 -223.018158 
L 396.712292 -221.528469 
L 396.712292 -220.03878 
L 396.712292 -218.549091 
L 396.712292 -217.059402 
L 396.712292 -215.569713 
L 396.712292 -214.080024 
L 396.712292 -212.590335 
L 396.712292 -211.100646 
L 396.712292 -209.610957 
L 396.712292 -208.121268 
L 396.712292 -206.631579 
L 396.712292 -205.14189 
L 396.712292 -203.652201 
L 396.712292 -202.162512 
L 396.712292 -200.672823 
L 396.712292 -199.183134 
L 396.712292 -197.693445 
L 396.712292 -196.203756 
L 396.712292 -194.714067 
L 396.712292 -193.224378 
L 396.712292 -191.734689 
L 396.712292 -190.245001 
L 396.712292 -188.755312 
L 396.712292 -187.265623 
L 396.712292 -185.775934 
L 396.712292 -184.286245 
z
"/>
    </defs>
    <g clip-path="url(#p0e8f780668)">
     <use xlink:href="#m4792a1b708" x="0" y="419.67625" style="fill: #857aab"/>
    </g>
   </g>
   <g id="PathCollection_1">
    <defs>
     <path id="C0_0_96fe7e2bbf" d="M 0 3.383948 
C 0.897434 3.383948 1.758231 3.027394 2.392813 2.392813 
C 3.027394 1.758231 3.383948 0.897434 3.383948 -0 
C 3.383948 -0.897434 3.027394 -1.758231 2.392813 -2.392813 
C 1.758231 -3.027394 0.897434 -3.383948 0 -3.383948 
C -0.897434 -3.383948 -1.758231 -3.027394 -2.392813 -2.392813 
C -3.027394 -1.758231 -3.383948 -0.897434 -3.383948 0 
C -3.383948 0.897434 -3.027394 1.758231 -2.392813 2.392813 
C -1.758231 3.027394 -0.897434 3.383948 0 3.383948 
z
"/>
    </defs>
    <g clip-path="url(#p0e8f780668)">
     <use xlink:href="#C0_0_96fe7e2bbf" x="147.023958" y="157.809455" style="stroke: #000000; stroke-width: 2.025"/>
    </g>
    <g clip-path="url(#p0e8f780668)">
     <use xlink:href="#C0_0_96fe7e2bbf" x="281.990625" y="145.420724" style="stroke: #000000; stroke-width: 2.025"/>
    </g>
    <g clip-path="url(#p0e8f780668)">
     <use xlink:href="#C0_0_96fe7e2bbf" x="416.957292" y="168.982472" style="stroke: #000000; stroke-width: 2.025"/>
    </g>
   </g>
   <g id="PathCollection_2">
    <defs>
     <path id="C1_0_5b786eb7b3" d="M 0 5 
C 1.326016 5 2.597899 4.473168 3.535534 3.535534 
C 4.473168 2.597899 5 1.326016 5 -0 
C 5 -1.326016 4.473168 -2.597899 3.535534 -3.535534 
C 2.597899 -4.473168 1.326016 -5 0 -5 
C -1.326016 -5 -2.597899 -4.473168 -3.535534 -3.535534 
C -4.473168 -2.597899 -5 -1.326016 -5 0 
C -5 1.326016 -4.473168 2.597899 -3.535534 3.535534 
C -2.597899 4.473168 -1.326016 5 0 5 
z
"/>
    </defs>
    <g clip-path="url(#p0e8f780668)">
     <use xlink:href="#C1_0_5b786eb7b3" x="142.86397" y="135.372767" style="fill: #55a868; fill-opacity: 0.6; stroke: #ffffff; stroke-opacity: 0.6"/>
    </g>
    <g clip-path="url(#p0e8f780668)">
     <use xlink:href="#C1_0_5b786eb7b3" x="137.275753" y="97.096649" style="fill: #55a868; fill-opacity: 0.6; stroke: #ffffff; stroke-opacity: 0.6"/>
    </g>
    <g clip-path="url(#p0e8f780668)">
     <use xlink:href="#C1_0_5b786eb7b3" x="148.41529" y="147.11313" style="fill: #55a868; fill-opacity: 0.6; stroke: #ffffff; stroke-opacity: 0.6"/>
    </g>
    <g clip-path="url(#p0e8f780668)">
     <use xlink:href="#C1_0_5b786eb7b3" x="143.774746" y="193.563245" style="fill: #55a868; fill-opacity: 0.6; stroke: #ffffff; stroke-opacity: 0.6"/>
    </g>
    <g clip-path="url(#p0e8f780668)">
     <use xlink:href="#C1_0_5b786eb7b3" x="152.616967" y="152.314623" style="fill: #55a868; fill-opacity: 0.6; stroke: #ffffff; stroke-opacity: 0.6"/>
    </g>
    <g clip-path="url(#p0e8f780668)">
     <use xlink:href="#C1_0_5b786eb7b3" x="143.403641" y="102.381849" style="fill: #55a868; fill-opacity: 0.6; stroke: #ffffff; stroke-opacity: 0.6"/>
    </g>
    <g clip-path="url(#p0e8f780668)">
     <use xlink:href="#C1_0_5b786eb7b3" x="138.19921" y="217.931075" style="fill: #55a868; fill-opacity: 0.6; stroke: #ffffff; stroke-opacity: 0.6"/>
    </g>
    <g clip-path="url(#p0e8f780668)">
     <use xlink:href="#C1_0_5b786eb7b3" x="155.500042" y="173.44917" style="fill: #55a868; fill-opacity: 0.6; stroke: #ffffff; stroke-opacity: 0.6"/>
    </g>
    <g clip-path="url(#p0e8f780668)">
     <use xlink:href="#C1_0_5b786eb7b3" x="135.132513" y="147.331748" style="fill: #55a868; fill-opacity: 0.6; stroke: #ffffff; stroke-opacity: 0.6"/>
    </g>
    <g clip-path="url(#p0e8f780668)">
     <use xlink:href="#C1_0_5b786eb7b3" x="142.342122" y="179.370859" style="fill: #55a868; fill-opacity: 0.6; stroke: #ffffff; stroke-opacity: 0.6"/>
    </g>
    <g clip-path="url(#p0e8f780668)">
     <use xlink:href="#C1_0_5b786eb7b3" x="140.478926" y="142.859862" style="fill: #55a868; fill-opacity: 0.6; stroke: #ffffff; stroke-opacity: 0.6"/>
    </g>
    <g clip-path="url(#p0e8f780668)">
     <use xlink:href="#C1_0_5b786eb7b3" x="144.705937" y="152.098147" style="fill: #55a868; fill-opacity: 0.6; stroke: #ffffff; stroke-opacity: 0.6"/>
    </g>
    <g clip-path="url(#p0e8f780668)">
     <use xlink:href="#C1_0_5b786eb7b3" x="148.256667" y="131.309244" style="fill: #55a868; fill-opacity: 0.6; stroke: #ffffff; stroke-opacity: 0.6"/>
    </g>
    <g clip-path="url(#p0e8f780668)">
     <use xlink:href="#C1_0_5b786eb7b3" x="144.002378" y="142.897198" style="fill: #55a868; fill-opacity: 0.6; stroke: #ffffff; stroke-opacity: 0.6"/>
    </g>
    <g clip-path="url(#p0e8f780668)">
     <use xlink:href="#C1_0_5b786eb7b3" x="141.652245" y="233.408584" style="fill: #55a868; fill-opacity: 0.6; stroke: #ffffff; stroke-opacity: 0.6"/>
    </g>
    <g clip-path="url(#p0e8f780668)">
     <use xlink:href="#C1_0_5b786eb7b3" x="156.336662" y="185.837987" style="fill: #55a868; fill-opacity: 0.6; stroke: #ffffff; stroke-opacity: 0.6"/>
    </g>
    <g clip-path="url(#p0e8f780668)">
     <use xlink:href="#C1_0_5b786eb7b3" x="157.728145" y="149.425817" style="fill: #55a868; fill-opacity: 0.6; stroke: #ffffff; stroke-opacity: 0.6"/>
    </g>
    <g clip-path="url(#p0e8f780668)">
     <use xlink:href="#C1_0_5b786eb7b3" x="153.125781" y="153.130832" style="fill: #55a868; fill-opacity: 0.6; stroke: #ffffff; stroke-opacity: 0.6"/>
    </g>
    <g clip-path="url(#p0e8f780668)">
     <use xlink:href="#C1_0_5b786eb7b3" x="148.462783" y="81.813758" style="fill: #55a868; fill-opacity: 0.6; stroke: #ffffff; stroke-opacity: 0.6"/>
    </g>
    <g clip-path="url(#p0e8f780668)">
     <use xlink:href="#C1_0_5b786eb7b3" x="149.969923" y="255.012728" style="fill: #55a868; fill-opacity: 0.6; stroke: #ffffff; stroke-opacity: 0.6"/>
    </g>
    <g clip-path="url(#p0e8f780668)">
     <use xlink:href="#C1_0_5b786eb7b3" x="151.387415" y="183.986525" style="fill: #55a868; fill-opacity: 0.6; stroke: #ffffff; stroke-opacity: 0.6"/>
    </g>
    <g clip-path="url(#p0e8f780668)">
     <use xlink:href="#C1_0_5b786eb7b3" x="152.622593" y="171.210363" style="fill: #55a868; fill-opacity: 0.6; stroke: #ffffff; stroke-opacity: 0.6"/>
    </g>
    <g clip-path="url(#p0e8f780668)">
     <use xlink:href="#C1_0_5b786eb7b3" x="138.002371" y="95.650792" style="fill: #55a868; fill-opacity: 0.6; stroke: #ffffff; stroke-opacity: 0.6"/>
    </g>
    <g clip-path="url(#p0e8f780668)">
     <use xlink:href="#C1_0_5b786eb7b3" x="146.418087" y="146.969433" style="fill: #55a868; fill-opacity: 0.6; stroke: #ffffff; stroke-opacity: 0.6"/>
    </g>
    <g clip-path="url(#p0e8f780668)">
     <use xlink:href="#C1_0_5b786eb7b3" x="147.030531" y="175.032886" style="fill: #55a868; fill-opacity: 0.6; stroke: #ffffff; stroke-opacity: 0.6"/>
    </g>
    <g clip-path="url(#p0e8f780668)">
     <use xlink:href="#C1_0_5b786eb7b3" x="138.415457" y="135.34243" style="fill: #55a868; fill-opacity: 0.6; stroke: #ffffff; stroke-opacity: 0.6"/>
    </g>
    <g clip-path="url(#p0e8f780668)">
     <use xlink:href="#C1_0_5b786eb7b3" x="135.843044" y="188.549006" style="fill: #55a868; fill-opacity: 0.6; stroke: #ffffff; stroke-opacity: 0.6"/>
    </g>
    <g clip-path="url(#p0e8f780668)">
     <use xlink:href="#C1_0_5b786eb7b3" x="147.121574" y="145.543113" style="fill: #55a868; fill-opacity: 0.6; stroke: #ffffff; stroke-opacity: 0.6"/>
    </g>
    <g clip-path="url(#p0e8f780668)">
     <use xlink:href="#C1_0_5b786eb7b3" x="149.279854" y="91.668744" style="fill: #55a868; fill-opacity: 0.6; stroke: #ffffff; stroke-opacity: 0.6"/>
    </g>
    <g clip-path="url(#p0e8f780668)">
     <use xlink:href="#C1_0_5b786eb7b3" x="144.787282" y="122.897947" style="fill: #55a868; fill-opacity: 0.6; stroke: #ffffff; stroke-opacity: 0.6"/>
    </g>
    <g clip-path="url(#p0e8f780668)">
     <use xlink:href="#C1_0_5b786eb7b3" x="138.792146" y="157.800514" style="fill: #55a868; fill-opacity: 0.6; stroke: #ffffff; stroke-opacity: 0.6"/>
    </g>
    <g clip-path="url(#p0e8f780668)">
     <use xlink:href="#C1_0_5b786eb7b3" x="135.114515" y="100.220946" style="fill: #55a868; fill-opacity: 0.6; stroke: #ffffff; stroke-opacity: 0.6"/>
    </g>
    <g clip-path="url(#p0e8f780668)">
     <use xlink:href="#C1_0_5b786eb7b3" x="136.633937" y="102.086857" style="fill: #55a868; fill-opacity: 0.6; stroke: #ffffff; stroke-opacity: 0.6"/>
    </g>
    <g clip-path="url(#p0e8f780668)">
     <use xlink:href="#C1_0_5b786eb7b3" x="152.750913" y="163.588685" style="fill: #55a868; fill-opacity: 0.6; stroke: #ffffff; stroke-opacity: 0.6"/>
    </g>
    <g clip-path="url(#p0e8f780668)">
     <use xlink:href="#C1_0_5b786eb7b3" x="145.846089" y="168.633175" style="fill: #55a868; fill-opacity: 0.6; stroke: #ffffff; stroke-opacity: 0.6"/>
    </g>
    <g clip-path="url(#p0e8f780668)">
     <use xlink:href="#C1_0_5b786eb7b3" x="151.532712" y="139.707624" style="fill: #55a868; fill-opacity: 0.6; stroke: #ffffff; stroke-opacity: 0.6"/>
    </g>
    <g clip-path="url(#p0e8f780668)">
     <use xlink:href="#C1_0_5b786eb7b3" x="153.762962" y="217.164426" style="fill: #55a868; fill-opacity: 0.6; stroke: #ffffff; stroke-opacity: 0.6"/>
    </g>
    <g clip-path="url(#p0e8f780668)">
     <use xlink:href="#C1_0_5b786eb7b3" x="159.590188" y="201.898167" style="fill: #55a868; fill-opacity: 0.6; stroke: #ffffff; stroke-opacity: 0.6"/>
    </g>
    <g clip-path="url(#p0e8f780668)">
     <use xlink:href="#C1_0_5b786eb7b3" x="159.669082" y="192.859934" style="fill: #55a868; fill-opacity: 0.6; stroke: #ffffff; stroke-opacity: 0.6"/>
    </g>
    <g clip-path="url(#p0e8f780668)">
     <use xlink:href="#C1_0_5b786eb7b3" x="141.363523" y="156.033042" style="fill: #55a868; fill-opacity: 0.6; stroke: #ffffff; stroke-opacity: 0.6"/>
    </g>
    <g clip-path="url(#p0e8f780668)">
     <use xlink:href="#C1_0_5b786eb7b3" x="156.531901" y="166.22506" style="fill: #55a868; fill-opacity: 0.6; stroke: #ffffff; stroke-opacity: 0.6"/>
    </g>
    <g clip-path="url(#p0e8f780668)">
     <use xlink:href="#C1_0_5b786eb7b3" x="147.489144" y="247.12967" style="fill: #55a868; fill-opacity: 0.6; stroke: #ffffff; stroke-opacity: 0.6"/>
    </g>
    <g clip-path="url(#p0e8f780668)">
     <use xlink:href="#C1_0_5b786eb7b3" x="142.440043" y="175.965397" style="fill: #55a868; fill-opacity: 0.6; stroke: #ffffff; stroke-opacity: 0.6"/>
    </g>
    <g clip-path="url(#p0e8f780668)">
     <use xlink:href="#C1_0_5b786eb7b3" x="140.964678" y="220.786472" style="fill: #55a868; fill-opacity: 0.6; stroke: #ffffff; stroke-opacity: 0.6"/>
    </g>
    <g clip-path="url(#p0e8f780668)">
     <use xlink:href="#C1_0_5b786eb7b3" x="154.692922" y="131.432625" style="fill: #55a868; fill-opacity: 0.6; stroke: #ffffff; stroke-opacity: 0.6"/>
    </g>
    <g clip-path="url(#p0e8f780668)">
     <use xlink:href="#C1_0_5b786eb7b3" x="135.953781" y="157.539231" style="fill: #55a868; fill-opacity: 0.6; stroke: #ffffff; stroke-opacity: 0.6"/>
    </g>
    <g clip-path="url(#p0e8f780668)">
     <use xlink:href="#C1_0_5b786eb7b3" x="137.284765" y="176.783949" style="fill: #55a868; fill-opacity: 0.6; stroke: #ffffff; stroke-opacity: 0.6"/>
    </g>
    <g clip-path="url(#p0e8f780668)">
     <use xlink:href="#C1_0_5b786eb7b3" x="134.019714" y="204.236161" style="fill: #55a868; fill-opacity: 0.6; stroke: #ffffff; stroke-opacity: 0.6"/>
    </g>
    <g clip-path="url(#p0e8f780668)">
     <use xlink:href="#C1_0_5b786eb7b3" x="136.824096" y="172.329224" style="fill: #55a868; fill-opacity: 0.6; stroke: #ffffff; stroke-opacity: 0.6"/>
    </g>
    <g clip-path="url(#p0e8f780668)">
     <use xlink:href="#C1_0_5b786eb7b3" x="157.333742" y="46.426854" style="fill: #55a868; fill-opacity: 0.6; stroke: #ffffff; stroke-opacity: 0.6"/>
    </g>
    <g clip-path="url(#p0e8f780668)">
     <use xlink:href="#C1_0_5b786eb7b3" x="157.068356" y="162.076148" style="fill: #55a868; fill-opacity: 0.6; stroke: #ffffff; stroke-opacity: 0.6"/>
    </g>
    <g clip-path="url(#p0e8f780668)">
     <use xlink:href="#C1_0_5b786eb7b3" x="136.760454" y="126.093298" style="fill: #55a868; fill-opacity: 0.6; stroke: #ffffff; stroke-opacity: 0.6"/>
    </g>
    <g clip-path="url(#p0e8f780668)">
     <use xlink:href="#C1_0_5b786eb7b3" x="147.941258" y="62.689012" style="fill: #55a868; fill-opacity: 0.6; stroke: #ffffff; stroke-opacity: 0.6"/>
    </g>
    <g clip-path="url(#p0e8f780668)">
     <use xlink:href="#C1_0_5b786eb7b3" x="141.268485" y="175.032886" style="fill: #55a868; fill-opacity: 0.6; stroke: #ffffff; stroke-opacity: 0.6"/>
    </g>
    <g clip-path="url(#p0e8f780668)">
     <use xlink:href="#C1_0_5b786eb7b3" x="157.413703" y="177.911414" style="fill: #55a868; fill-opacity: 0.6; stroke: #ffffff; stroke-opacity: 0.6"/>
    </g>
    <g clip-path="url(#p0e8f780668)">
     <use xlink:href="#C1_0_5b786eb7b3" x="153.270644" y="116.534998" style="fill: #55a868; fill-opacity: 0.6; stroke: #ffffff; stroke-opacity: 0.6"/>
    </g>
    <g clip-path="url(#p0e8f780668)">
     <use xlink:href="#C1_0_5b786eb7b3" x="151.951078" y="200.489254" style="fill: #55a868; fill-opacity: 0.6; stroke: #ffffff; stroke-opacity: 0.6"/>
    </g>
    <g clip-path="url(#p0e8f780668)">
     <use xlink:href="#C1_0_5b786eb7b3" x="146.833414" y="202.70285" style="fill: #55a868; fill-opacity: 0.6; stroke: #ffffff; stroke-opacity: 0.6"/>
    </g>
   </g>
   <g id="PathCollection_3">
    <defs>
     <path id="C2_0_cbb9886f0b" d="M 0 5 
C 1.326016 5 2.597899 4.473168 3.535534 3.535534 
C 4.473168 2.597899 5 1.326016 5 -0 
C 5 -1.326016 4.473168 -2.597899 3.535534 -3.535534 
C 2.597899 -4.473168 1.326016 -5 0 -5 
C -1.326016 -5 -2.597899 -4.473168 -3.535534 -3.535534 
C -4.473168 -2.597899 -5 -1.326016 -5 0 
C -5 1.326016 -4.473168 2.597899 -3.535534 3.535534 
C -2.597899 4.473168 -1.326016 5 0 5 
z
"/>
    </defs>
    <g clip-path="url(#p0e8f780668)">
     <use xlink:href="#C2_0_cbb9886f0b" x="280.985856" y="159.374264" style="fill: #c44e52; fill-opacity: 0.6; stroke: #ffffff; stroke-opacity: 0.6"/>
    </g>
    <g clip-path="url(#p0e8f780668)">
     <use xlink:href="#C2_0_cbb9886f0b" x="270.236453" y="154.894007" style="fill: #c44e52; fill-opacity: 0.6; stroke: #ffffff; stroke-opacity: 0.6"/>
    </g>
    <g clip-path="url(#p0e8f780668)">
     <use xlink:href="#C2_0_cbb9886f0b" x="288.657203" y="134.262891" style="fill: #c44e52; fill-opacity: 0.6; stroke: #ffffff; stroke-opacity: 0.6"/>
    </g>
    <g clip-path="url(#p0e8f780668)">
     <use xlink:href="#C2_0_cbb9886f0b" x="294.616585" y="141.807272" style="fill: #c44e52; fill-opacity: 0.6; stroke: #ffffff; stroke-opacity: 0.6"/>
    </g>
    <g clip-path="url(#p0e8f780668)">
     <use xlink:href="#C2_0_cbb9886f0b" x="270.067254" y="160.087146" style="fill: #c44e52; fill-opacity: 0.6; stroke: #ffffff; stroke-opacity: 0.6"/>
    </g>
    <g clip-path="url(#p0e8f780668)">
     <use xlink:href="#C2_0_cbb9886f0b" x="292.009572" y="176.23255" style="fill: #c44e52; fill-opacity: 0.6; stroke: #ffffff; stroke-opacity: 0.6"/>
    </g>
    <g clip-path="url(#p0e8f780668)">
     <use xlink:href="#C2_0_cbb9886f0b" x="275.624616" y="234.534568" style="fill: #c44e52; fill-opacity: 0.6; stroke: #ffffff; stroke-opacity: 0.6"/>
    </g>
    <g clip-path="url(#p0e8f780668)">
     <use xlink:href="#C2_0_cbb9886f0b" x="268.619628" y="93.97602" style="fill: #c44e52; fill-opacity: 0.6; stroke: #ffffff; stroke-opacity: 0.6"/>
    </g>
    <g clip-path="url(#p0e8f780668)">
     <use xlink:href="#C2_0_cbb9886f0b" x="289.567586" y="142.859862" style="fill: #c44e52; fill-opacity: 0.6; stroke: #ffffff; stroke-opacity: 0.6"/>
    </g>
    <g clip-path="url(#p0e8f780668)">
     <use xlink:href="#C2_0_cbb9886f0b" x="289.543332" y="181.716141" style="fill: #c44e52; fill-opacity: 0.6; stroke: #ffffff; stroke-opacity: 0.6"/>
    </g>
    <g clip-path="url(#p0e8f780668)">
     <use xlink:href="#C2_0_cbb9886f0b" x="288.626162" y="144.033081" style="fill: #c44e52; fill-opacity: 0.6; stroke: #ffffff; stroke-opacity: 0.6"/>
    </g>
    <g clip-path="url(#p0e8f780668)">
     <use xlink:href="#C2_0_cbb9886f0b" x="294.051774" y="198.41" style="fill: #c44e52; fill-opacity: 0.6; stroke: #ffffff; stroke-opacity: 0.6"/>
    </g>
    <g clip-path="url(#p0e8f780668)">
     <use xlink:href="#C2_0_cbb9886f0b" x="273.532346" y="122.740494" style="fill: #c44e52; fill-opacity: 0.6; stroke: #ffffff; stroke-opacity: 0.6"/>
    </g>
    <g clip-path="url(#p0e8f780668)">
     <use xlink:href="#C2_0_cbb9886f0b" x="292.0881" y="144.362627" style="fill: #c44e52; fill-opacity: 0.6; stroke: #ffffff; stroke-opacity: 0.6"/>
    </g>
    <g clip-path="url(#p0e8f780668)">
     <use xlink:href="#C2_0_cbb9886f0b" x="294.637196" y="126.18906" style="fill: #c44e52; fill-opacity: 0.6; stroke: #ffffff; stroke-opacity: 0.6"/>
    </g>
    <g clip-path="url(#p0e8f780668)">
     <use xlink:href="#C2_0_cbb9886f0b" x="280.681392" y="126.763112" style="fill: #c44e52; fill-opacity: 0.6; stroke: #ffffff; stroke-opacity: 0.6"/>
    </g>
    <g clip-path="url(#p0e8f780668)">
     <use xlink:href="#C2_0_cbb9886f0b" x="269.55916" y="194.056169" style="fill: #c44e52; fill-opacity: 0.6; stroke: #ffffff; stroke-opacity: 0.6"/>
    </g>
    <g clip-path="url(#p0e8f780668)">
     <use xlink:href="#C2_0_cbb9886f0b" x="279.813679" y="124.253721" style="fill: #c44e52; fill-opacity: 0.6; stroke: #ffffff; stroke-opacity: 0.6"/>
    </g>
    <g clip-path="url(#p0e8f780668)">
     <use xlink:href="#C2_0_cbb9886f0b" x="269.554552" y="112.007488" style="fill: #c44e52; fill-opacity: 0.6; stroke: #ffffff; stroke-opacity: 0.6"/>
    </g>
    <g clip-path="url(#p0e8f780668)">
     <use xlink:href="#C2_0_cbb9886f0b" x="279.271647" y="132.681627" style="fill: #c44e52; fill-opacity: 0.6; stroke: #ffffff; stroke-opacity: 0.6"/>
    </g>
    <g clip-path="url(#p0e8f780668)">
     <use xlink:href="#C2_0_cbb9886f0b" x="279.915112" y="124.036783" style="fill: #c44e52; fill-opacity: 0.6; stroke: #ffffff; stroke-opacity: 0.6"/>
    </g>
    <g clip-path="url(#p0e8f780668)">
     <use xlink:href="#C2_0_cbb9886f0b" x="269.165315" y="191.775785" style="fill: #c44e52; fill-opacity: 0.6; stroke: #ffffff; stroke-opacity: 0.6"/>
    </g>
    <g clip-path="url(#p0e8f780668)">
     <use xlink:href="#C2_0_cbb9886f0b" x="270.340785" y="99.660173" style="fill: #c44e52; fill-opacity: 0.6; stroke: #ffffff; stroke-opacity: 0.6"/>
    </g>
    <g clip-path="url(#p0e8f780668)">
     <use xlink:href="#C2_0_cbb9886f0b" x="292.239894" y="61.175561" style="fill: #c44e52; fill-opacity: 0.6; stroke: #ffffff; stroke-opacity: 0.6"/>
    </g>
    <g clip-path="url(#p0e8f780668)">
     <use xlink:href="#C2_0_cbb9886f0b" x="280.436091" y="207.993018" style="fill: #c44e52; fill-opacity: 0.6; stroke: #ffffff; stroke-opacity: 0.6"/>
    </g>
    <g clip-path="url(#p0e8f780668)">
     <use xlink:href="#C2_0_cbb9886f0b" x="281.864483" y="138.418396" style="fill: #c44e52; fill-opacity: 0.6; stroke: #ffffff; stroke-opacity: 0.6"/>
    </g>
    <g clip-path="url(#p0e8f780668)">
     <use xlink:href="#C2_0_cbb9886f0b" x="283.103389" y="206.327126" style="fill: #c44e52; fill-opacity: 0.6; stroke: #ffffff; stroke-opacity: 0.6"/>
    </g>
    <g clip-path="url(#p0e8f780668)">
     <use xlink:href="#C2_0_cbb9886f0b" x="279.511638" y="92.841027" style="fill: #c44e52; fill-opacity: 0.6; stroke: #ffffff; stroke-opacity: 0.6"/>
    </g>
    <g clip-path="url(#p0e8f780668)">
     <use xlink:href="#C2_0_cbb9886f0b" x="276.014005" y="97.162399" style="fill: #c44e52; fill-opacity: 0.6; stroke: #ffffff; stroke-opacity: 0.6"/>
    </g>
    <g clip-path="url(#p0e8f780668)">
     <use xlink:href="#C2_0_cbb9886f0b" x="279.467542" y="98.249978" style="fill: #c44e52; fill-opacity: 0.6; stroke: #ffffff; stroke-opacity: 0.6"/>
    </g>
    <g clip-path="url(#p0e8f780668)">
     <use xlink:href="#C2_0_cbb9886f0b" x="275.711281" y="173.685459" style="fill: #c44e52; fill-opacity: 0.6; stroke: #ffffff; stroke-opacity: 0.6"/>
    </g>
    <g clip-path="url(#p0e8f780668)">
     <use xlink:href="#C2_0_cbb9886f0b" x="271.564392" y="139.352328" style="fill: #c44e52; fill-opacity: 0.6; stroke: #ffffff; stroke-opacity: 0.6"/>
    </g>
    <g clip-path="url(#p0e8f780668)">
     <use xlink:href="#C2_0_cbb9886f0b" x="278.281299" y="169.881755" style="fill: #c44e52; fill-opacity: 0.6; stroke: #ffffff; stroke-opacity: 0.6"/>
    </g>
    <g clip-path="url(#p0e8f780668)">
     <use xlink:href="#C2_0_cbb9886f0b" x="270.513472" y="152.664692" style="fill: #c44e52; fill-opacity: 0.6; stroke: #ffffff; stroke-opacity: 0.6"/>
    </g>
    <g clip-path="url(#p0e8f780668)">
     <use xlink:href="#C2_0_cbb9886f0b" x="294.167466" y="159.434459" style="fill: #c44e52; fill-opacity: 0.6; stroke: #ffffff; stroke-opacity: 0.6"/>
    </g>
    <g clip-path="url(#p0e8f780668)">
     <use xlink:href="#C2_0_cbb9886f0b" x="294.725206" y="90.189623" style="fill: #c44e52; fill-opacity: 0.6; stroke: #ffffff; stroke-opacity: 0.6"/>
    </g>
    <g clip-path="url(#p0e8f780668)">
     <use xlink:href="#C2_0_cbb9886f0b" x="286.919856" y="192.156348" style="fill: #c44e52; fill-opacity: 0.6; stroke: #ffffff; stroke-opacity: 0.6"/>
    </g>
    <g clip-path="url(#p0e8f780668)">
     <use xlink:href="#C2_0_cbb9886f0b" x="290.114484" y="100.002716" style="fill: #c44e52; fill-opacity: 0.6; stroke: #ffffff; stroke-opacity: 0.6"/>
    </g>
    <g clip-path="url(#p0e8f780668)">
     <use xlink:href="#C2_0_cbb9886f0b" x="287.532039" y="97.689014" style="fill: #c44e52; fill-opacity: 0.6; stroke: #ffffff; stroke-opacity: 0.6"/>
    </g>
    <g clip-path="url(#p0e8f780668)">
     <use xlink:href="#C2_0_cbb9886f0b" x="276.011886" y="173.015468" style="fill: #c44e52; fill-opacity: 0.6; stroke: #ffffff; stroke-opacity: 0.6"/>
    </g>
    <g clip-path="url(#p0e8f780668)">
     <use xlink:href="#C2_0_cbb9886f0b" x="279.801382" y="173.066016" style="fill: #c44e52; fill-opacity: 0.6; stroke: #ffffff; stroke-opacity: 0.6"/>
    </g>
    <g clip-path="url(#p0e8f780668)">
     <use xlink:href="#C2_0_cbb9886f0b" x="281.510895" y="126.762977" style="fill: #c44e52; fill-opacity: 0.6; stroke: #ffffff; stroke-opacity: 0.6"/>
    </g>
    <g clip-path="url(#p0e8f780668)">
     <use xlink:href="#C2_0_cbb9886f0b" x="284.085795" y="182.520094" style="fill: #c44e52; fill-opacity: 0.6; stroke: #ffffff; stroke-opacity: 0.6"/>
    </g>
    <g clip-path="url(#p0e8f780668)">
     <use xlink:href="#C2_0_cbb9886f0b" x="272.347136" y="154.204726" style="fill: #c44e52; fill-opacity: 0.6; stroke: #ffffff; stroke-opacity: 0.6"/>
    </g>
    <g clip-path="url(#p0e8f780668)">
     <use xlink:href="#C2_0_cbb9886f0b" x="291.944393" y="122.712873" style="fill: #c44e52; fill-opacity: 0.6; stroke: #ffffff; stroke-opacity: 0.6"/>
    </g>
    <g clip-path="url(#p0e8f780668)">
     <use xlink:href="#C2_0_cbb9886f0b" x="292.88836" y="67.671358" style="fill: #c44e52; fill-opacity: 0.6; stroke: #ffffff; stroke-opacity: 0.6"/>
    </g>
    <g clip-path="url(#p0e8f780668)">
     <use xlink:href="#C2_0_cbb9886f0b" x="284.230197" y="159.689515" style="fill: #c44e52; fill-opacity: 0.6; stroke: #ffffff; stroke-opacity: 0.6"/>
    </g>
    <g clip-path="url(#p0e8f780668)">
     <use xlink:href="#C2_0_cbb9886f0b" x="280.489939" y="151.64288" style="fill: #c44e52; fill-opacity: 0.6; stroke: #ffffff; stroke-opacity: 0.6"/>
    </g>
    <g clip-path="url(#p0e8f780668)">
     <use xlink:href="#C2_0_cbb9886f0b" x="270.916535" y="141.984611" style="fill: #c44e52; fill-opacity: 0.6; stroke: #ffffff; stroke-opacity: 0.6"/>
    </g>
    <g clip-path="url(#p0e8f780668)">
     <use xlink:href="#C2_0_cbb9886f0b" x="287.301875" y="126.717581" style="fill: #c44e52; fill-opacity: 0.6; stroke: #ffffff; stroke-opacity: 0.6"/>
    </g>
    <g clip-path="url(#p0e8f780668)">
     <use xlink:href="#C2_0_cbb9886f0b" x="283.462419" y="124.133249" style="fill: #c44e52; fill-opacity: 0.6; stroke: #ffffff; stroke-opacity: 0.6"/>
    </g>
    <g clip-path="url(#p0e8f780668)">
     <use xlink:href="#C2_0_cbb9886f0b" x="290.126418" y="259.817543" style="fill: #c44e52; fill-opacity: 0.6; stroke: #ffffff; stroke-opacity: 0.6"/>
    </g>
   </g>
   <g id="PathCollection_4">
    <defs>
     <path id="C3_0_e1146469c6" d="M 0 5 
C 1.326016 5 2.597899 4.473168 3.535534 3.535534 
C 4.473168 2.597899 5 1.326016 5 -0 
C 5 -1.326016 4.473168 -2.597899 3.535534 -3.535534 
C 2.597899 -4.473168 1.326016 -5 0 -5 
C -1.326016 -5 -2.597899 -4.473168 -3.535534 -3.535534 
C -4.473168 -2.597899 -5 -1.326016 -5 0 
C -5 1.326016 -4.473168 2.597899 -3.535534 3.535534 
C -2.597899 4.473168 -1.326016 5 0 5 
z
"/>
    </defs>
    <g clip-path="url(#p0e8f780668)">
     <use xlink:href="#C3_0_e1146469c6" x="412.123555" y="204.431461" style="fill: #8172b3; fill-opacity: 0.6; stroke: #ffffff; stroke-opacity: 0.6"/>
    </g>
    <g clip-path="url(#p0e8f780668)">
     <use xlink:href="#C3_0_e1146469c6" x="426.668809" y="196.4463" style="fill: #8172b3; fill-opacity: 0.6; stroke: #ffffff; stroke-opacity: 0.6"/>
    </g>
    <g clip-path="url(#p0e8f780668)">
     <use xlink:href="#C3_0_e1146469c6" x="406.89754" y="193.885154" style="fill: #8172b3; fill-opacity: 0.6; stroke: #ffffff; stroke-opacity: 0.6"/>
    </g>
    <g clip-path="url(#p0e8f780668)">
     <use xlink:href="#C3_0_e1146469c6" x="413.107574" y="175.04842" style="fill: #8172b3; fill-opacity: 0.6; stroke: #ffffff; stroke-opacity: 0.6"/>
    </g>
    <g clip-path="url(#p0e8f780668)">
     <use xlink:href="#C3_0_e1146469c6" x="427.682676" y="168.555225" style="fill: #8172b3; fill-opacity: 0.6; stroke: #ffffff; stroke-opacity: 0.6"/>
    </g>
    <g clip-path="url(#p0e8f780668)">
     <use xlink:href="#C3_0_e1146469c6" x="424.823382" y="144.115102" style="fill: #8172b3; fill-opacity: 0.6; stroke: #ffffff; stroke-opacity: 0.6"/>
    </g>
    <g clip-path="url(#p0e8f780668)">
     <use xlink:href="#C3_0_e1146469c6" x="422.465949" y="191.624868" style="fill: #8172b3; fill-opacity: 0.6; stroke: #ffffff; stroke-opacity: 0.6"/>
    </g>
    <g clip-path="url(#p0e8f780668)">
     <use xlink:href="#C3_0_e1146469c6" x="430.35481" y="213.065241" style="fill: #8172b3; fill-opacity: 0.6; stroke: #ffffff; stroke-opacity: 0.6"/>
    </g>
    <g clip-path="url(#p0e8f780668)">
     <use xlink:href="#C3_0_e1146469c6" x="427.325119" y="223.338041" style="fill: #8172b3; fill-opacity: 0.6; stroke: #ffffff; stroke-opacity: 0.6"/>
    </g>
    <g clip-path="url(#p0e8f780668)">
     <use xlink:href="#C3_0_e1146469c6" x="425.157822" y="196.2694" style="fill: #8172b3; fill-opacity: 0.6; stroke: #ffffff; stroke-opacity: 0.6"/>
    </g>
    <g clip-path="url(#p0e8f780668)">
     <use xlink:href="#C3_0_e1146469c6" x="427.93774" y="204.709858" style="fill: #8172b3; fill-opacity: 0.6; stroke: #ffffff; stroke-opacity: 0.6"/>
    </g>
    <g clip-path="url(#p0e8f780668)">
     <use xlink:href="#C3_0_e1146469c6" x="430.209892" y="180.294975" style="fill: #8172b3; fill-opacity: 0.6; stroke: #ffffff; stroke-opacity: 0.6"/>
    </g>
    <g clip-path="url(#p0e8f780668)">
     <use xlink:href="#C3_0_e1146469c6" x="404.455138" y="199.430536" style="fill: #8172b3; fill-opacity: 0.6; stroke: #ffffff; stroke-opacity: 0.6"/>
    </g>
    <g clip-path="url(#p0e8f780668)">
     <use xlink:href="#C3_0_e1146469c6" x="406.39423" y="168.382975" style="fill: #8172b3; fill-opacity: 0.6; stroke: #ffffff; stroke-opacity: 0.6"/>
    </g>
    <g clip-path="url(#p0e8f780668)">
     <use xlink:href="#C3_0_e1146469c6" x="421.930312" y="131.511296" style="fill: #8172b3; fill-opacity: 0.6; stroke: #ffffff; stroke-opacity: 0.6"/>
    </g>
    <g clip-path="url(#p0e8f780668)">
     <use xlink:href="#C3_0_e1146469c6" x="423.267404" y="137.054675" style="fill: #8172b3; fill-opacity: 0.6; stroke: #ffffff; stroke-opacity: 0.6"/>
    </g>
    <g clip-path="url(#p0e8f780668)">
     <use xlink:href="#C3_0_e1146469c6" x="422.206937" y="170.478069" style="fill: #8172b3; fill-opacity: 0.6; stroke: #ffffff; stroke-opacity: 0.6"/>
    </g>
    <g clip-path="url(#p0e8f780668)">
     <use xlink:href="#C3_0_e1146469c6" x="406.84314" y="188.757488" style="fill: #8172b3; fill-opacity: 0.6; stroke: #ffffff; stroke-opacity: 0.6"/>
    </g>
    <g clip-path="url(#p0e8f780668)">
     <use xlink:href="#C3_0_e1146469c6" x="430.08647" y="150.460087" style="fill: #8172b3; fill-opacity: 0.6; stroke: #ffffff; stroke-opacity: 0.6"/>
    </g>
    <g clip-path="url(#p0e8f780668)">
     <use xlink:href="#C3_0_e1146469c6" x="403.56677" y="170.894785" style="fill: #8172b3; fill-opacity: 0.6; stroke: #ffffff; stroke-opacity: 0.6"/>
    </g>
    <g clip-path="url(#p0e8f780668)">
     <use xlink:href="#C3_0_e1146469c6" x="419.453772" y="87.910798" style="fill: #8172b3; fill-opacity: 0.6; stroke: #ffffff; stroke-opacity: 0.6"/>
    </g>
    <g clip-path="url(#p0e8f780668)">
     <use xlink:href="#C3_0_e1146469c6" x="410.870554" y="128.874799" style="fill: #8172b3; fill-opacity: 0.6; stroke: #ffffff; stroke-opacity: 0.6"/>
    </g>
    <g clip-path="url(#p0e8f780668)">
     <use xlink:href="#C3_0_e1146469c6" x="413.205335" y="114.249343" style="fill: #8172b3; fill-opacity: 0.6; stroke: #ffffff; stroke-opacity: 0.6"/>
    </g>
    <g clip-path="url(#p0e8f780668)">
     <use xlink:href="#C3_0_e1146469c6" x="426.880499" y="157.078673" style="fill: #8172b3; fill-opacity: 0.6; stroke: #ffffff; stroke-opacity: 0.6"/>
    </g>
    <g clip-path="url(#p0e8f780668)">
     <use xlink:href="#C3_0_e1146469c6" x="414.571624" y="183.603736" style="fill: #8172b3; fill-opacity: 0.6; stroke: #ffffff; stroke-opacity: 0.6"/>
    </g>
    <g clip-path="url(#p0e8f780668)">
     <use xlink:href="#C3_0_e1146469c6" x="430.040181" y="123.501335" style="fill: #8172b3; fill-opacity: 0.6; stroke: #ffffff; stroke-opacity: 0.6"/>
    </g>
    <g clip-path="url(#p0e8f780668)">
     <use xlink:href="#C3_0_e1146469c6" x="409.421809" y="142.867961" style="fill: #8172b3; fill-opacity: 0.6; stroke: #ffffff; stroke-opacity: 0.6"/>
    </g>
    <g clip-path="url(#p0e8f780668)">
     <use xlink:href="#C3_0_e1146469c6" x="428.951069" y="185.874318" style="fill: #8172b3; fill-opacity: 0.6; stroke: #ffffff; stroke-opacity: 0.6"/>
    </g>
    <g clip-path="url(#p0e8f780668)">
     <use xlink:href="#C3_0_e1146469c6" x="416.228371" y="133.923029" style="fill: #8172b3; fill-opacity: 0.6; stroke: #ffffff; stroke-opacity: 0.6"/>
    </g>
    <g clip-path="url(#p0e8f780668)">
     <use xlink:href="#C3_0_e1146469c6" x="409.510531" y="101.305966" style="fill: #8172b3; fill-opacity: 0.6; stroke: #ffffff; stroke-opacity: 0.6"/>
    </g>
    <g clip-path="url(#p0e8f780668)">
     <use xlink:href="#C3_0_e1146469c6" x="414.52897" y="183.773126" style="fill: #8172b3; fill-opacity: 0.6; stroke: #ffffff; stroke-opacity: 0.6"/>
    </g>
    <g clip-path="url(#p0e8f780668)">
     <use xlink:href="#C3_0_e1146469c6" x="419.933481" y="210.05601" style="fill: #8172b3; fill-opacity: 0.6; stroke: #ffffff; stroke-opacity: 0.6"/>
    </g>
    <g clip-path="url(#p0e8f780668)">
     <use xlink:href="#C3_0_e1146469c6" x="411.722009" y="148.008753" style="fill: #8172b3; fill-opacity: 0.6; stroke: #ffffff; stroke-opacity: 0.6"/>
    </g>
    <g clip-path="url(#p0e8f780668)">
     <use xlink:href="#C3_0_e1146469c6" x="404.389868" y="235.390005" style="fill: #8172b3; fill-opacity: 0.6; stroke: #ffffff; stroke-opacity: 0.6"/>
    </g>
    <g clip-path="url(#p0e8f780668)">
     <use xlink:href="#C3_0_e1146469c6" x="415.233872" y="200.091019" style="fill: #8172b3; fill-opacity: 0.6; stroke: #ffffff; stroke-opacity: 0.6"/>
    </g>
    <g clip-path="url(#p0e8f780668)">
     <use xlink:href="#C3_0_e1146469c6" x="403.971449" y="167.243743" style="fill: #8172b3; fill-opacity: 0.6; stroke: #ffffff; stroke-opacity: 0.6"/>
    </g>
    <g clip-path="url(#p0e8f780668)">
     <use xlink:href="#C3_0_e1146469c6" x="430.197586" y="178.655846" style="fill: #8172b3; fill-opacity: 0.6; stroke: #ffffff; stroke-opacity: 0.6"/>
    </g>
    <g clip-path="url(#p0e8f780668)">
     <use xlink:href="#C3_0_e1146469c6" x="411.292543" y="168.102927" style="fill: #8172b3; fill-opacity: 0.6; stroke: #ffffff; stroke-opacity: 0.6"/>
    </g>
    <g clip-path="url(#p0e8f780668)">
     <use xlink:href="#C3_0_e1146469c6" x="426.499254" y="211.149188" style="fill: #8172b3; fill-opacity: 0.6; stroke: #ffffff; stroke-opacity: 0.6"/>
    </g>
    <g clip-path="url(#p0e8f780668)">
     <use xlink:href="#C3_0_e1146469c6" x="429.896798" y="171.462787" style="fill: #8172b3; fill-opacity: 0.6; stroke: #ffffff; stroke-opacity: 0.6"/>
    </g>
    <g clip-path="url(#p0e8f780668)">
     <use xlink:href="#C3_0_e1146469c6" x="415.53477" y="108.614511" style="fill: #8172b3; fill-opacity: 0.6; stroke: #ffffff; stroke-opacity: 0.6"/>
    </g>
    <g clip-path="url(#p0e8f780668)">
     <use xlink:href="#C3_0_e1146469c6" x="411.976582" y="160.875546" style="fill: #8172b3; fill-opacity: 0.6; stroke: #ffffff; stroke-opacity: 0.6"/>
    </g>
    <g clip-path="url(#p0e8f780668)">
     <use xlink:href="#C3_0_e1146469c6" x="403.688287" y="171.56722" style="fill: #8172b3; fill-opacity: 0.6; stroke: #ffffff; stroke-opacity: 0.6"/>
    </g>
    <g clip-path="url(#p0e8f780668)">
     <use xlink:href="#C3_0_e1146469c6" x="427.234321" y="211.838618" style="fill: #8172b3; fill-opacity: 0.6; stroke: #ffffff; stroke-opacity: 0.6"/>
    </g>
    <g clip-path="url(#p0e8f780668)">
     <use xlink:href="#C3_0_e1146469c6" x="420.821485" y="196.034859" style="fill: #8172b3; fill-opacity: 0.6; stroke: #ffffff; stroke-opacity: 0.6"/>
    </g>
    <g clip-path="url(#p0e8f780668)">
     <use xlink:href="#C3_0_e1146469c6" x="422.625755" y="155.163428" style="fill: #8172b3; fill-opacity: 0.6; stroke: #ffffff; stroke-opacity: 0.6"/>
    </g>
    <g clip-path="url(#p0e8f780668)">
     <use xlink:href="#C3_0_e1146469c6" x="415.574354" y="138.984764" style="fill: #8172b3; fill-opacity: 0.6; stroke: #ffffff; stroke-opacity: 0.6"/>
    </g>
    <g clip-path="url(#p0e8f780668)">
     <use xlink:href="#C3_0_e1146469c6" x="418.879231" y="92.97832" style="fill: #8172b3; fill-opacity: 0.6; stroke: #ffffff; stroke-opacity: 0.6"/>
    </g>
    <g clip-path="url(#p0e8f780668)">
     <use xlink:href="#C3_0_e1146469c6" x="426.336798" y="198.41" style="fill: #8172b3; fill-opacity: 0.6; stroke: #ffffff; stroke-opacity: 0.6"/>
    </g>
    <g clip-path="url(#p0e8f780668)">
     <use xlink:href="#C3_0_e1146469c6" x="406.816626" y="152.012767" style="fill: #8172b3; fill-opacity: 0.6; stroke: #ffffff; stroke-opacity: 0.6"/>
    </g>
    <g clip-path="url(#p0e8f780668)">
     <use xlink:href="#C3_0_e1146469c6" x="429.745741" y="191.088295" style="fill: #8172b3; fill-opacity: 0.6; stroke: #ffffff; stroke-opacity: 0.6"/>
    </g>
    <g clip-path="url(#p0e8f780668)">
     <use xlink:href="#C3_0_e1146469c6" x="424.96122" y="189.512251" style="fill: #8172b3; fill-opacity: 0.6; stroke: #ffffff; stroke-opacity: 0.6"/>
    </g>
    <g clip-path="url(#p0e8f780668)">
     <use xlink:href="#C3_0_e1146469c6" x="414.83116" y="147.11313" style="fill: #8172b3; fill-opacity: 0.6; stroke: #ffffff; stroke-opacity: 0.6"/>
    </g>
   </g>
   <g id="line2d_12">
    <path d="M 147.023958 168.304008 
L 147.023958 146.607498 
" clip-path="url(#p0e8f780668)" style="fill: none; stroke: #000000; stroke-width: 2.7; stroke-linecap: round"/>
   </g>
   <g id="line2d_13">
    <path d="M 141.625292 168.304008 
L 152.422625 168.304008 
" clip-path="url(#p0e8f780668)" style="fill: none; stroke: #000000; stroke-width: 2.7; stroke-linecap: round"/>
   </g>
   <g id="line2d_14">
    <path d="M 141.625292 146.607498 
L 152.422625 146.607498 
" clip-path="url(#p0e8f780668)" style="fill: none; stroke: #000000; stroke-width: 2.7; stroke-linecap: round"/>
   </g>
   <g id="line2d_15">
    <path d="M 281.990625 156.533678 
L 281.990625 134.82274 
" clip-path="url(#p0e8f780668)" style="fill: none; stroke: #000000; stroke-width: 2.7; stroke-linecap: round"/>
   </g>
   <g id="line2d_16">
    <path d="M 276.591958 156.533678 
L 287.389292 156.533678 
" clip-path="url(#p0e8f780668)" style="fill: none; stroke: #000000; stroke-width: 2.7; stroke-linecap: round"/>
   </g>
   <g id="line2d_17">
    <path d="M 276.591958 134.82274 
L 287.389292 134.82274 
" clip-path="url(#p0e8f780668)" style="fill: none; stroke: #000000; stroke-width: 2.7; stroke-linecap: round"/>
   </g>
   <g id="line2d_18">
    <path d="M 416.957292 178.994164 
L 416.957292 160.142113 
" clip-path="url(#p0e8f780668)" style="fill: none; stroke: #000000; stroke-width: 2.7; stroke-linecap: round"/>
   </g>
   <g id="line2d_19">
    <path d="M 411.558625 178.994164 
L 422.355958 178.994164 
" clip-path="url(#p0e8f780668)" style="fill: none; stroke: #000000; stroke-width: 2.7; stroke-linecap: round"/>
   </g>
   <g id="line2d_20">
    <path d="M 411.558625 160.142113 
L 422.355958 160.142113 
" clip-path="url(#p0e8f780668)" style="fill: none; stroke: #000000; stroke-width: 2.7; stroke-linecap: round"/>
   </g>
   <g id="patch_3">
    <path d="M 69.540625 357.751667 
L 69.540625 39.068333 
" style="fill: none; stroke: #262626; stroke-width: 2.5; stroke-linejoin: miter; stroke-linecap: square"/>
   </g>
   <g id="PathCollection_5">
    <defs>
     <path id="m81c8692309" d="M 0 4.330127 
C 1.148363 4.330127 2.249847 3.873878 3.061862 3.061862 
C 3.873878 2.249847 4.330127 1.148363 4.330127 0 
C 4.330127 -1.148363 3.873878 -2.249847 3.061862 -3.061862 
C 2.249847 -3.873878 1.148363 -4.330127 0 -4.330127 
C -1.148363 -4.330127 -2.249847 -3.873878 -3.061862 -3.061862 
C -3.873878 -2.249847 -4.330127 -1.148363 -4.330127 0 
C -4.330127 1.148363 -3.873878 2.249847 -3.061862 3.061862 
C -2.249847 3.873878 -1.148363 4.330127 0 4.330127 
z
" style="stroke: #000000; stroke-width: 1.5"/>
    </defs>
    <g clip-path="url(#p0e8f780668)">
     <use xlink:href="#m81c8692309" x="147.023958" y="157.809455" style="fill: #ffffff; stroke: #000000; stroke-width: 1.5"/>
     <use xlink:href="#m81c8692309" x="281.990625" y="145.420724" style="fill: #ffffff; stroke: #000000; stroke-width: 1.5"/>
     <use xlink:href="#m81c8692309" x="416.957292" y="168.982472" style="fill: #ffffff; stroke: #000000; stroke-width: 1.5"/>
    </g>
   </g>
  </g>
 </g>
 <defs>
  <clipPath id="p0e8f780668">
   <rect x="79.540625" y="7.2" width="404.9" height="382.42"/>
  </clipPath>
 </defs>
</svg>
